# xmcd
#
# Track frame offsets: 
#        150
#        9902
#        27957
#        43477
#        56656
#        67244
#
# Disc length: 1077 seconds
#
# Revision: 2
# Processed by: cddbd v1.4PL0 Copyright (c) Steve Scherf et al.
# Submitted via: ExactAudioCopy v0.95a3
#
DISCID=51043306
DTITLE=Sun, the - Love and Death
DYEAR=2003
DGENRE=Indie
TTITLE0=Fell So Hard
TTITLE1=Rockstop
TTITLE2=Love and Death
TTITLE3=Carry It All
TTITLE4=Back In The Summer Of '72
TTITLE5=Eyelids Apart
EXTD=2003\nWB\n\nWhat we have here is a bit of garage rock bandwaggon-
EXTD=jumping by Warner Bros in signing The Sun, who sound like an amal
EXTD=gam of The Strokes, The White Stripes, The Vines, The Hives, and 
EXTD=The Flaming Sideburns. Seems like all you have to do these days i
EXTD=s compress the hell out of your vocals, play loud guitars, and pu
EXTD=t a "The" before your band name. Regardless, these guys are worth
EXTD=a listen. Recommended: 1, 4, 3, and 6 (an acoustic oddity).\r\n\r
EXTD=\n-riley
EXTT0=
EXTT1=
EXTT2=
EXTT3=
EXTT4=
EXTT5=
PLAYORDER=
